<svg width="196" height="17" viewBox="0 0 196 17" fill="none" xmlns="http://www.w3.org/2000/svg">
<path d="M1.3 14.2997H4.2C4.6 14.2997 4.9 14.1997 5.1 13.9997C5.3 13.7997 5.4 13.3997 5.4 12.9997V3.49971C5.4 3.09971 5.3 2.79971 5.1 2.49971C4.9 2.29971 4.6 2.19971 4.2 2.19971H1.3V0.199707H4.2C4.9 0.199707 5.5 0.299707 6 0.599707C6.5 0.899707 6.9 1.19971 7.1 1.69971C7.4 2.19971 7.5 2.79971 7.5 3.49971V12.8997C7.5 13.5997 7.4 14.1997 7.1 14.6997C6.8 15.1997 6.5 15.5997 5.9 15.7997C5.5 16.0997 4.9 16.2997 4.2 16.2997H1.3V14.2997ZM0 0.199707H2.1V16.2997H0V0.199707Z" fill="#7E959E"/>
<path d="M13 0.199707H10.9V16.2997H13V0.199707Z" fill="#7E959E"/>
<path d="M23.8 7.6V12.3C23.8 13.2 23.6 13.9 23.3 14.5C23 15.1 22.6 15.6 22 15.9C21.4 16.2 20.7 16.4 19.9 16.4C19.1 16.4 18.4 16.2 17.8 15.9C17.2 15.6 16.8 15.1 16.5 14.6C16.2 14 16 13.3 16 12.5V4.1C16 3.2 16.1 2.5 16.5 1.9C16.8 1.3 17.2 0.8 17.8 0.5C18.4 0.2 19.1 0 19.9 0C20.7 0 21.4 0.2 21.9 0.5C22.5 0.8 22.9 1.3 23.2 1.9C23.5 2.5 23.6 3.2 23.6 4.1V4.9H21.5V4C21.5 3.6 21.4 3.2 21.3 2.9C21.2 2.6 21 2.4 20.8 2.2C20.6 2 20.3 2 20 2C19.6 2 19.3 2.1 19 2.2C18.7 2.4 18.5 2.6 18.4 2.9C18.3 3.2 18.2 3.6 18.2 4V12.4C18.2 12.8 18.3 13.1 18.4 13.4C18.5 13.7 18.8 13.9 19 14C19.3 14.1 19.6 14.2 20 14.2C20.4 14.2 20.7 14.1 20.9 14C21.2 13.8 21.4 13.6 21.5 13.3C21.6 13 21.7 12.6 21.7 12.2V9.5H19.9V7.5H23.8V7.6Z" fill="#7E959E"/>
<path d="M28.8002 0.199707H26.7002V16.2997H28.8002V0.199707Z" fill="#7E959E"/>
<path d="M34.5002 1.49971H36.6002V16.2997H34.5002V1.49971ZM31.7002 0.199707H39.5002V2.19971H31.7002V0.199707Z" fill="#7E959E"/>
<path d="M42.5 10.7997H47.3V12.7997H42.5V10.7997ZM43.9 0.199707H45.8L49.5 16.2997H47.2L44.8 3.49971L42.4 16.2997H40.1L43.9 0.199707Z" fill="#7E959E"/>
<path d="M53 14.2997H58.5V16.2997H53V14.2997ZM51.9 0.199707H54V16.2997H51.9V0.199707Z" fill="#7E959E"/>
<path d="M66.4002 15.9C65.8002 15.6 65.4002 15.1 65.1002 14.5C64.8002 13.9 64.7002 13.1 64.7002 12.3V4.1C64.7002 3.2 64.8002 2.5 65.1002 1.9C65.4002 1.3 65.8002 0.8 66.4002 0.5C67.0002 0.2 67.6002 0 68.4002 0C69.2002 0 69.9002 0.2 70.4002 0.5C71.0002 0.8 71.4002 1.3 71.7002 1.9C72.0002 2.5 72.1002 3.3 72.1002 4.1V4.8H70.0002V4.1C70.0002 3.7 69.9002 3.3 69.8002 3C69.7002 2.7 69.5002 2.5 69.3002 2.3C69.1002 2.1 68.8002 2.1 68.4002 2.1C68.1002 2.1 67.8002 2.2 67.5002 2.3C67.3002 2.5 67.1002 2.7 66.9002 3C66.8002 3.3 66.7002 3.7 66.7002 4.1V12.3C66.7002 12.7 66.8002 13.1 66.9002 13.4C67.0002 13.7 67.2002 13.9 67.5002 14.1C67.7002 14.3 68.0002 14.3 68.4002 14.3C68.7002 14.3 69.0002 14.2 69.3002 14.1C69.5002 13.9 69.7002 13.7 69.9002 13.4C70.0002 13.1 70.1002 12.7 70.1002 12.3V11.6H72.2002V12.3C72.2002 13.2 72.1002 13.9 71.8002 14.5C71.5002 15.1 71.1002 15.6 70.5002 15.9C69.9002 16.2 69.3002 16.4 68.5002 16.4C67.6002 16.4 66.9002 16.3 66.4002 15.9Z" fill="#7E959E"/>
<path d="M77.6 0.199707H75.5V16.2997H77.6V0.199707Z" fill="#7E959E"/>
<path d="M83.3 1.49971H85.4V16.2997H83.3V1.49971ZM80.4 0.199707H88.2V2.19971H80.4V0.199707Z" fill="#7E959E"/>
<path d="M92.8002 0.199707H90.7002V16.2997H92.8002V0.199707Z" fill="#7E959E"/>
<path d="M102.2 1.99971L97.9 14.2997H102.3V16.2997H95.6V14.4997L100 2.19971H95.8V0.199707H102.2V1.99971Z" fill="#7E959E"/>
<path d="M106.1 14.2997H111.9V16.2997H106.1V14.2997ZM106.1 7.29971H111.4V9.29971H106.1V7.29971ZM106.1 0.199707H111.9V2.19971H106.1V0.199707ZM105 0.199707H107.1V16.2997H105V0.199707Z" fill="#7E959E"/>
<path d="M114.5 0.199707H116.3L120.7 12.4997L120.4 12.7997V0.199707H122.4V16.2997H120.5L116.1 4.29971L116.5 3.99971V16.2997H114.5V0.199707Z" fill="#7E959E"/>
<path d="M127.1 16C126.5 15.7 126.1 15.3 125.8 14.7C125.5 14.1 125.3 13.4 125.3 12.6V11.8H127.4V12.5C127.4 13.1 127.6 13.5 127.9 13.8C128.2 14.1 128.7 14.3 129.2 14.3C129.8 14.3 130.2 14.1 130.5 13.8C130.8 13.5 131 13 131 12.5V11.1C131 10.7 130.9 10.4 130.7 10.1C130.5 9.8 130.3 9.6 130 9.4C129.7 9.2 129.3 9 128.8 8.8L128.6 8.7C127.9 8.4 127.4 8.1 126.9 7.8C126.5 7.5 126.1 7.1 125.8 6.6C125.5 6.1 125.3 5.4 125.3 4.6V3.7C125.3 2.9 125.4 2.2 125.7 1.7C126 1.1 126.4 0.7 127 0.4C127.6 0.0999998 128.3 0 129.1 0C129.9 0 130.6 0.0999998 131.2 0.4C131.8 0.7 132.2 1.1 132.5 1.7C132.8 2.3 132.9 2.9 132.9 3.8V4.6H130.8V3.9C130.8 3.3 130.7 2.9 130.4 2.6C130.1 2.3 129.7 2.1 129.2 2.1C128.6 2.1 128.2 2.2 127.9 2.5C127.6 2.8 127.4 3.2 127.4 3.8V4.8C127.4 5.2 127.5 5.5 127.7 5.8C127.9 6.1 128.1 6.3 128.4 6.5C128.7 6.7 129.1 6.9 129.6 7.1C129.7 7.1 129.7 7.1 129.7 7.2C129.7 7.2 129.8 7.2 129.8 7.3H129.9H130C130.6 7.6 131.2 7.9 131.5 8.1C131.9 8.4 132.2 8.7 132.5 9.2C132.8 9.7 132.9 10.3 132.9 11.1V12.6C132.9 13.4 132.8 14.1 132.5 14.7C132.2 15.3 131.8 15.7 131.2 16C130.6 16.3 129.9 16.4 129.1 16.4C128.4 16.4 127.7 16.3 127.1 16Z" fill="#7E959E"/>
<path d="M141.2 0.199707H143.3V16.2997H141.2V0.199707ZM137.3 7.39971H142.2V9.39971H137.3V7.39971ZM135.9 0.199707H138V16.2997H135.9V0.199707Z" fill="#7E959E"/>
<path d="M148.5 0.199707H146.4V16.2997H148.5V0.199707Z" fill="#7E959E"/>
<path d="M152.8 7.99971H155.8C156.1 7.99971 156.3 7.89971 156.5 7.79971C156.7 7.69971 156.9 7.49971 157 7.19971C157.1 6.99971 157.2 6.69971 157.2 6.29971V3.89971C157.2 3.49971 157.1 3.19971 157 2.99971C156.9 2.69971 156.7 2.49971 156.5 2.39971C156.3 2.29971 156 2.19971 155.8 2.19971H152.8V0.199707H155.8C156.6 0.199707 157.2 0.299707 157.7 0.599707C158.2 0.899707 158.6 1.29971 158.9 1.89971C159.2 2.49971 159.3 3.09971 159.3 3.89971V6.49971C159.3 7.29971 159.2 7.89971 158.9 8.39971C158.6 8.89971 158.2 9.29971 157.7 9.59971C157.2 9.89971 156.5 9.99971 155.8 9.99971H152.8V7.99971ZM151.6 0.199707H153.7V16.2997H151.6V0.199707Z" fill="#7E959E"/>
<path d="M191.6 2.2C192.1 2.2 192.4 2.3 192.6 2.4C192.8 2.5 193 2.7 193.1 3C193.2 3.3 193.3 3.6 193.3 3.9C193.3 4.2 193.3 4.6 193.3 5C193.3 5.4 193.3 5.8 193.3 6.1C193.3 6.4 193.2 6.7 193.1 6.9C193 7.1 192.8 7.3 192.5 7.5C192.2 7.6 191.9 7.7 191.4 7.7H190.3V2.2H191.6ZM190.4 16.1V9.8H191.6C192.5 9.8 193.1 9.7 193.7 9.4C194.2 9.1 194.6 8.7 195 8.2C195.3 7.8 195.4 7.3 195.5 6.8C195.6 6.3 195.6 5.7 195.6 5C195.6 4 195.5 3.3 195.4 2.7C195.2 2.1 195 1.6 194.6 1.2C194.2 0.8 193.8 0.5 193.3 0.3C192.8 0.0999999 192.3 0.0999999 191.6 0.0999999H188.1V16.2H190.4V16.1ZM179.8 16.1L180.5 12.6H183.6L184.3 16.1H186.6L183 0H181.1L177.5 16.1H179.8ZM180.9 10.5L182 4.7L183.1 10.5H180.9ZM167.8 16.1V6.3L170.1 13.2H171.3L173.6 6.3V16.1H175.9V0H173.7L170.8 8.5L167.8 0H165.5V16.1H167.8Z" fill="#7E959E"/>
</svg>
